<svg width="32" height="32" viewBox="0 0 32 32" fill="none" xmlns="http://www.w3.org/2000/svg">
  <rect width="32" height="32" rx="16" fill="#FAF2DE"/>
  <path d="M6.4 16C6.4 10.6854 10.6854 6.4 16 6.4H16C21.3145 6.4 25.6 10.6854 25.6 16V16C25.6 21.3145 21.3145 25.6 16 25.6H16C10.6854 25.6 6.4 21.3145 6.4 16V16Z" fill="#E53935"/>
  <path d="M11.2 12.8C11.2 11.9164 11.9164 11.2 12.8 11.2H19.2C20.0836 11.2 20.8 11.9164 20.8 12.8V19.2C20.8 20.0836 20.0836 20.8 19.2 20.8H12.8C11.9164 20.8 11.2 20.0836 11.2 19.2V12.8Z" fill="#FFD54F"/>
  <path d="M13.6576 16.5952C13.6576 15.5904 14.4256 14.8224 15.4304 14.8224H16.5696C17.5744 14.8224 18.3424 15.5904 18.3424 16.5952V16.5952C18.3424 17.6 17.5744 18.368 16.5696 18.368H15.4304C14.4256 18.368 13.6576 17.6 13.6576 16.5952V16.5952Z" fill="#E53935"/>
</svg>