<svg width="200" height="200" viewBox="0 0 200 200" fill="none" xmlns="http://www.w3.org/2000/svg">
  <rect width="200" height="200" rx="100" fill="#FAF2DE"/>
  <path d="M40 100C40 67.9086 65.9086 42 98 42H102C134.091 42 160 67.9086 160 100V104C160 136.091 134.091 162 102 162H98C65.9086 162 40 136.091 40 104V100Z" fill="#E53935"/>
  <path d="M70 80C70 74.4772 74.4772 70 80 70H120C125.523 70 130 74.4772 130 80V120C130 125.523 125.523 130 120 130H80C74.4772 130 70 125.523 70 120V80Z" fill="#FFD54F"/>
  <path d="M85.36 103.72C85.36 97.44 90.16 92.64 96.44 92.64H103.56C109.84 92.64 114.64 97.44 114.64 103.72V103.72C114.64 110 109.84 114.8 103.56 114.8H96.44C90.16 114.8 85.36 110 85.36 103.72V103.72Z" fill="#E53935"/>
  <path d="M65 140L75 125H125L135 140" stroke="#4A352A" stroke-width="4" stroke-linecap="round" stroke-linejoin="round"/>
  <path d="M95 62V50" stroke="#4A352A" stroke-width="4" stroke-linecap="round" stroke-linejoin="round"/>
  <path d="M105 62V50" stroke="#4A352A" stroke-width="4" stroke-linecap="round" stroke-linejoin="round"/>
  <path d="M95 50H105" stroke="#4A352A" stroke-width="4" stroke-linecap="round" stroke-linejoin="round"/>
  <path d="M100 80V70" stroke="#4A352A" stroke-width="4" stroke-linecap="round" stroke-linejoin="round"/>
</svg>